<?xml version="1.0" standalone="no"?>
<!DOCTYPE svg PUBLIC "-//W3C//DTD SVG 20010904//EN"
 "http://www.w3.org/TR/2001/REC-SVG-20010904/DTD/svg10.dtd">
<svg version="1.0" xmlns="http://www.w3.org/2000/svg"
 width="1796.000000pt" height="1796.000000pt" viewBox="0 0 1796.000000 1796.000000"
 preserveAspectRatio="xMidYMid meet">
<metadata>
Created by potrace 1.14, written by Peter Selinger 2001-2017
</metadata>
<g transform="translate(0.000000,1796.000000) scale(0.100000,-0.100000)"
fill="#000000" stroke="none">
<path d="M8246 12983 c-2 -3 -53 -7 -113 -9 -165 -6 -313 -13 -363 -18 -25 -3
-76 -8 -115 -11 -309 -26 -466 -43 -665 -71 -14 -2 -40 -4 -57 -6 -18 -1 -33
-5 -33 -8 0 -3 -10 -5 -22 -6 -27 0 -124 -12 -155 -18 -11 -3 -43 -8 -70 -12
-26 -3 -57 -9 -68 -11 -11 -2 -33 -6 -50 -9 -16 -3 -41 -7 -55 -9 -14 -2 -36
-6 -50 -9 -14 -4 -50 -11 -80 -16 -30 -5 -89 -17 -130 -25 -41 -9 -86 -18
-100 -20 -14 -2 -65 -13 -115 -25 -49 -12 -99 -24 -110 -26 -19 -4 -38 -8 -82
-18 -10 -2 -47 -12 -83 -21 -36 -10 -72 -19 -80 -19 -9 -1 -20 -5 -25 -8 -9
-5 -96 -27 -126 -31 -8 -2 -18 -5 -24 -9 -5 -3 -26 -9 -45 -14 -45 -10 -36 -8
-105 -28 -95 -28 -186 -57 -233 -73 -23 -8 -50 -16 -60 -18 -9 -2 -18 -4 -19
-5 -3 -3 -8 -5 -41 -15 -13 -4 -73 -25 -135 -47 -62 -21 -116 -40 -122 -42 -5
-2 -23 -9 -40 -15 -16 -7 -34 -14 -40 -15 -5 -2 -23 -8 -40 -15 -16 -6 -43
-16 -60 -22 -16 -6 -39 -15 -50 -20 -63 -28 -172 -69 -182 -69 -7 0 -13 -4
-13 -9 0 -7 -22 -16 -60 -26 -3 0 -34 -14 -70 -30 -36 -17 -67 -30 -70 -31 -3
0 -40 -17 -83 -37 -42 -20 -80 -37 -83 -37 -3 0 -18 -9 -32 -19 -15 -10 -31
-19 -35 -19 -9 1 -298 -143 -307 -152 -3 -3 -30 -18 -60 -33 -30 -15 -77 -41
-105 -57 -27 -17 -61 -36 -75 -42 -46 -23 -443 -267 -466 -286 -6 -5 -28 -21
-50 -36 -76 -51 -316 -220 -344 -243 -13 -11 -44 -34 -118 -91 -12 -9 -28 -22
-35 -27 -6 -6 -61 -51 -122 -100 -60 -49 -120 -99 -132 -110 -12 -11 -36 -33
-55 -49 -203 -176 -538 -510 -701 -700 -10 -12 -28 -32 -40 -46 -25 -28 -164
-195 -187 -223 -8 -11 -21 -25 -27 -32 -7 -8 -13 -17 -13 -21 0 -4 -10 -17
-22 -28 -13 -12 -27 -30 -33 -39 -5 -8 -29 -40 -52 -69 l-43 -54 19 -50 c11
-27 25 -62 32 -79 7 -16 13 -32 14 -35 9 -25 31 -80 47 -115 5 -12 10 -27 12
-35 1 -8 10 -33 20 -55 24 -53 19 -42 136 -340 114 -293 147 -377 166 -420 12
-28 57 -144 59 -155 1 -3 6 -16 12 -30 6 -14 27 -68 48 -120 20 -52 44 -108
53 -125 9 -16 15 -32 14 -35 -3 -5 30 -89 64 -167 8 -17 14 -34 14 -38 0 -4 6
-21 14 -38 8 -18 47 -115 86 -217 78 -202 88 -226 101 -252 5 -10 9 -25 9 -33
0 -8 5 -15 11 -15 5 0 8 -4 5 -8 -2 -4 2 -23 11 -42 21 -48 25 -59 78 -195 92
-237 93 -238 118 -231 12 4 33 9 46 12 14 3 29 8 34 11 6 3 20 7 31 9 12 1 59
12 106 24 47 12 92 23 100 25 8 2 53 13 100 25 109 28 121 31 145 35 11 1 47
10 80 18 33 9 75 19 94 22 19 3 39 9 45 12 5 4 19 8 31 9 11 1 43 8 70 14 28
6 61 14 75 16 14 3 41 9 60 14 19 5 51 12 70 15 19 3 51 10 70 15 19 5 46 11
60 14 14 2 44 9 68 14 23 5 42 8 42 5 0 -3 7 0 15 7 8 7 15 10 15 7 0 -3 17
-1 38 4 20 5 53 11 72 15 19 3 43 7 52 10 20 6 53 13 97 20 18 3 41 7 50 9 9
2 50 10 91 19 41 8 89 18 105 20 17 3 53 10 80 16 28 6 64 13 80 15 17 2 40 6
51 8 12 3 37 8 55 11 19 3 43 7 54 10 30 6 108 19 125 21 8 1 53 9 100 18 47
9 103 18 125 22 22 3 92 14 155 25 63 10 133 22 155 25 23 3 52 8 65 10 36 7
110 18 145 21 17 1 30 3 30 4 0 1 9 3 20 4 11 2 45 7 75 11 30 5 62 9 70 10 8
1 40 5 70 9 30 4 62 9 70 11 8 2 40 7 70 10 30 3 69 8 85 11 17 3 48 7 70 10
51 5 102 11 157 19 93 12 115 15 168 20 30 3 65 7 78 10 12 2 55 7 95 11 39 3
86 8 102 10 17 2 57 6 90 8 33 3 60 6 60 6 0 3 136 17 235 26 30 2 75 6 100 9
81 9 174 17 235 20 33 2 60 4 60 5 0 1 29 3 65 6 36 2 90 6 120 8 82 8 185 16
275 21 44 2 80 5 80 5 0 2 204 12 272 14 33 0 59 4 56 8 -2 5 7 4 20 -1 14 -6
27 -7 30 -4 3 3 36 7 72 9 65 4 123 6 545 20 113 4 332 8 487 8 156 1 283 4
283 8 0 4 11 4 23 -1 13 -5 30 -5 37 -1 8 5 18 6 22 4 4 -3 178 -7 385 -9 400
-5 448 -6 1018 -30 139 -6 311 -15 365 -20 30 -3 93 -8 140 -10 154 -10 214
-14 270 -19 30 -3 91 -8 135 -11 44 -3 98 -8 120 -10 22 -2 74 -7 115 -10 41
-4 93 -9 115 -11 22 -2 65 -6 95 -9 30 -3 69 -7 85 -9 17 -2 62 -7 100 -11 39
-3 84 -8 100 -10 35 -5 104 -13 173 -20 61 -7 129 -16 150 -20 15 -2 126 -15
177 -20 11 -1 38 -5 60 -9 22 -4 56 -9 75 -11 35 -4 75 -9 185 -26 33 -5 80
-11 105 -14 25 -3 56 -8 70 -12 14 -3 28 -6 32 -5 4 1 31 -3 60 -8 29 -5 67
-11 83 -13 17 -3 57 -10 90 -15 107 -19 130 -23 160 -27 17 -3 39 -7 51 -10
12 -2 39 -7 60 -10 39 -6 61 -10 99 -18 11 -2 36 -7 55 -11 19 -3 46 -8 60
-11 14 -3 39 -7 55 -9 17 -3 59 -11 95 -20 36 -8 79 -17 95 -20 29 -5 143 -28
195 -40 14 -3 41 -9 60 -12 19 -4 44 -9 55 -11 11 -2 31 -6 45 -9 14 -3 34 -8
45 -11 22 -8 28 -9 70 -17 17 -3 57 -13 90 -22 33 -8 67 -17 75 -18 40 -8 96
-20 100 -21 3 -1 12 -4 20 -7 15 -6 165 -44 205 -53 11 -2 36 -9 55 -15 19 -6
46 -13 60 -16 14 -2 52 -13 85 -23 33 -11 80 -25 105 -32 25 -7 47 -13 50 -14
54 -15 144 -43 215 -67 50 -16 95 -31 100 -32 8 -2 56 -18 125 -44 31 -11 45
-6 60 23 8 17 26 48 39 70 13 22 39 67 56 100 63 117 70 130 76 135 3 3 13 21
22 40 10 19 22 42 27 50 12 18 118 213 140 255 8 17 19 35 23 40 10 13 92 158
93 165 0 3 19 37 42 77 23 39 42 76 42 82 0 6 4 11 8 11 5 0 16 17 25 38 15
37 67 132 77 142 3 3 14 23 26 45 11 22 31 58 44 80 12 22 37 67 55 100 59
109 98 180 122 217 13 21 23 40 23 42 0 3 41 77 90 165 50 88 90 165 90 171 0
5 5 10 10 10 6 0 10 4 10 8 0 9 110 214 119 222 4 3 20 32 36 65 17 33 33 62
38 63 4 2 7 7 7 12 0 4 47 92 104 194 57 102 102 186 100 186 -3 0 0 6 6 13
13 13 45 70 110 193 l43 81 -47 44 c-26 24 -68 64 -94 89 -84 79 -194 176
-302 265 -58 47 -117 96 -131 108 -14 12 -42 33 -62 47 -20 14 -37 28 -37 33
0 4 -4 7 -10 7 -5 0 -18 8 -28 18 -10 9 -29 24 -42 32 -12 8 -44 31 -69 50
-25 20 -75 56 -111 80 -36 25 -67 47 -70 50 -11 11 -129 90 -135 90 -3 0 -15
8 -26 18 -10 11 -32 25 -47 33 -15 8 -29 16 -32 19 -10 10 -69 50 -74 50 -3 0
-25 14 -49 30 -25 17 -49 30 -55 30 -6 0 -12 4 -14 9 -3 7 -46 34 -256 158
-20 12 -44 25 -52 29 -8 4 -37 21 -65 37 -62 37 -160 90 -245 133 -36 19 -70
37 -75 41 -20 15 -104 55 -111 53 -4 -1 -10 2 -13 7 -12 16 -399 202 -646 310
-44 20 -98 43 -120 53 -22 10 -69 30 -105 45 -36 14 -84 35 -107 46 -24 10
-46 19 -49 19 -3 0 -20 7 -37 14 -18 8 -75 31 -127 51 -52 20 -104 40 -115 45
-22 9 -51 19 -63 21 -4 1 -24 10 -44 20 -21 11 -38 17 -38 13 0 -4 -6 -2 -12
3 -7 6 -33 17 -58 26 -25 8 -130 45 -235 82 -104 36 -197 68 -205 70 -8 2 -35
10 -60 19 -25 9 -52 19 -60 21 -8 2 -60 18 -115 35 -55 18 -120 38 -145 45
-25 6 -55 16 -65 22 -11 5 -27 9 -35 8 -8 -1 -23 2 -32 7 -18 9 -174 55 -206
62 -9 2 -24 6 -32 9 -20 8 -116 34 -215 57 -27 6 -57 14 -65 17 -8 2 -16 4
-17 4 -2 0 -17 5 -35 10 -18 6 -44 12 -58 15 -14 3 -78 18 -142 35 -64 16
-126 29 -137 29 -12 0 -21 4 -21 9 0 5 -8 8 -17 7 -10 -2 -31 1 -48 6 -37 11
-40 12 -140 33 -44 9 -109 22 -145 30 -62 14 -102 22 -145 30 -11 2 -31 7 -45
10 -27 6 -94 16 -122 18 -10 1 -18 4 -18 7 0 3 -15 7 -33 8 -18 1 -44 5 -57 8
-24 5 -89 17 -155 29 -32 5 -68 11 -129 21 -21 3 -48 8 -60 11 -11 2 -28 5
-36 5 -8 0 -36 4 -62 9 -25 4 -72 11 -103 14 -31 4 -66 8 -78 11 -12 2 -38 7
-57 9 -19 3 -48 7 -65 10 -16 3 -57 7 -90 10 -33 3 -71 8 -85 11 -14 3 -43 7
-65 9 -22 2 -67 7 -100 11 -33 4 -77 8 -97 8 -21 1 -38 3 -38 6 0 3 -19 6 -43
7 -23 0 -71 4 -107 7 -68 7 -125 12 -250 21 -41 3 -102 7 -135 10 -66 6 -188
13 -335 21 -123 7 -1178 13 -1184 7z"/>
<path d="M9307 7234 c-1 -1 -182 -5 -402 -8 -220 -4 -454 -9 -520 -11 -108 -4
-170 -7 -455 -20 -47 -2 -130 -7 -185 -10 -55 -4 -134 -8 -175 -10 -93 -5
-181 -11 -285 -20 -44 -3 -109 -8 -145 -11 -151 -10 -337 -26 -455 -39 -22 -2
-75 -7 -118 -10 -44 -4 -86 -8 -95 -10 -10 -1 -51 -6 -92 -10 -41 -4 -87 -8
-103 -10 -15 -2 -62 -7 -105 -10 -42 -4 -79 -9 -82 -10 -3 -2 -42 -6 -85 -10
-44 -3 -87 -8 -95 -10 -8 -2 -42 -7 -75 -10 -33 -3 -76 -8 -95 -11 -37 -6 -65
-10 -145 -19 -27 -4 -77 -10 -110 -15 -33 -5 -80 -12 -105 -15 -72 -10 -113
-15 -140 -19 -14 -2 -47 -7 -75 -10 -50 -7 -90 -13 -90 -16 0 0 -18 -3 -40 -5
-71 -8 -110 -14 -110 -15 0 -1 -11 -4 -25 -6 -14 -2 -41 -5 -60 -8 -19 -3 -51
-8 -70 -11 -19 -3 -46 -7 -60 -10 -14 -2 -38 -6 -55 -9 -35 -6 -101 -17 -130
-21 -20 -2 -66 -10 -120 -21 -16 -3 -43 -7 -60 -10 -16 -2 -52 -8 -80 -14 -27
-5 -61 -12 -75 -14 -14 -3 -27 -5 -30 -6 -3 -2 -8 -2 -11 -2 -4 1 -51 -7 -105
-18 -55 -10 -115 -22 -134 -25 -19 -3 -42 -8 -50 -10 -8 -2 -29 -7 -46 -9 -31
-6 -161 -31 -200 -40 -12 -2 -38 -7 -58 -10 -20 -3 -55 -11 -78 -17 -24 -5
-53 -12 -65 -14 -12 -2 -36 -7 -55 -11 -42 -10 -35 -9 -93 -19 -27 -4 -54 -9
-60 -11 -5 -1 -53 -12 -105 -24 -52 -12 -104 -24 -115 -26 -11 -3 -29 -7 -40
-9 -11 -3 -29 -7 -40 -9 -11 -3 -69 -16 -130 -31 -60 -14 -119 -28 -130 -30
-11 -2 -40 -9 -65 -15 -25 -6 -56 -13 -70 -16 -14 -3 -43 -10 -65 -16 -22 -7
-42 -12 -45 -13 -3 0 -23 -5 -45 -10 -22 -4 -44 -10 -50 -11 -5 -2 -30 -8 -55
-14 -62 -16 -67 -17 -135 -35 -33 -8 -68 -17 -78 -20 -41 -10 -66 -20 -166
-66 -57 -27 -105 -49 -107 -49 -3 0 -36 -16 -74 -35 -39 -19 -74 -35 -78 -36
-9 -2 -146 -67 -350 -165 -84 -41 -155 -74 -158 -74 -3 0 -18 -8 -32 -18 -15
-10 -52 -29 -82 -42 -30 -14 -57 -27 -60 -30 -3 -3 -50 -27 -105 -55 -55 -27
-102 -52 -105 -55 -3 -3 -34 -20 -70 -39 -36 -19 -72 -39 -80 -45 -8 -6 -31
-20 -50 -30 -19 -11 -77 -46 -129 -78 -51 -32 -97 -58 -101 -58 -5 0 -10 -3
-12 -7 -1 -5 -30 -28 -63 -52 -53 -39 -147 -129 -182 -174 -7 -9 -15 -34 -19
-56 -6 -37 -3 -44 27 -74 36 -36 114 -65 193 -71 24 -2 48 -6 53 -9 11 -7 565
-1 628 7 22 2 78 7 125 10 47 4 108 8 135 11 86 8 148 14 195 20 25 2 71 7
103 9 32 3 73 8 90 10 18 3 59 8 92 11 33 2 71 7 85 10 14 3 52 7 85 10 33 2
60 5 60 5 0 3 33 8 95 14 36 3 76 8 90 11 14 3 50 7 80 10 30 2 64 6 76 9 12
2 45 7 75 11 30 3 65 8 79 10 14 3 45 7 70 10 25 2 54 6 65 9 11 2 45 7 76 10
31 4 65 8 76 10 11 3 44 7 74 10 30 3 65 8 79 11 14 2 45 6 70 9 25 3 59 8 75
12 17 3 44 7 60 9 17 2 46 6 65 9 19 3 56 7 82 8 27 2 48 6 48 9 0 3 6 6 13 6
21 1 121 13 142 17 11 2 42 7 68 10 27 4 57 9 66 11 10 2 42 6 72 9 30 3 65 8
79 11 13 2 42 7 65 10 22 3 51 8 65 10 14 2 45 7 70 10 25 3 70 10 100 15 30
5 75 11 100 14 25 4 56 8 70 10 61 11 107 18 130 21 27 2 132 18 140 20 3 1
32 5 65 10 64 8 90 13 90 15 0 1 20 3 45 5 25 2 59 6 75 9 17 4 48 9 70 12 22
3 83 12 135 20 52 8 113 17 135 20 22 3 51 7 65 9 24 5 78 12 145 20 17 2 30
4 30 5 0 2 27 7 80 14 28 3 61 8 75 11 14 3 45 7 70 10 25 2 54 6 65 9 11 2
40 7 65 10 25 3 54 8 65 10 19 3 83 13 155 22 19 3 47 7 62 10 15 3 42 7 60 9
18 3 56 8 83 11 55 7 71 9 130 19 22 4 56 9 75 10 19 2 36 4 38 6 1 1 11 3 22
4 11 1 21 3 23 4 1 1 18 4 37 6 34 3 96 11 149 19 14 3 46 7 71 11 25 4 56 8
70 10 14 2 48 6 75 10 28 3 61 7 75 10 13 3 40 7 60 10 44 6 128 17 155 20 11
1 20 3 20 4 0 1 14 4 30 6 65 7 134 16 230 30 22 3 54 8 70 10 17 2 50 7 75
11 25 3 59 7 75 9 17 2 30 4 30 5 0 1 16 3 35 5 19 1 35 3 35 5 0 1 16 3 35 5
19 1 52 5 73 9 37 6 107 15 157 21 14 1 50 6 80 10 30 4 66 9 80 10 14 2 41 6
60 9 19 3 58 8 85 11 28 3 64 8 80 10 17 3 50 7 75 9 42 5 70 8 161 22 20 3
56 7 80 9 24 3 60 7 79 10 19 3 53 8 74 10 36 3 63 7 166 21 19 2 55 7 80 9
25 3 59 7 75 9 17 2 57 7 90 11 33 3 71 8 85 11 14 2 52 6 85 9 33 3 70 7 82
9 12 3 53 8 90 11 83 8 140 15 173 20 14 2 50 6 80 9 30 3 75 7 100 10 96 11
147 17 200 22 30 3 66 7 80 9 14 1 59 6 100 9 41 4 86 9 100 11 14 2 57 6 95
10 39 3 84 8 100 10 35 5 124 14 210 20 33 3 76 7 95 10 19 2 69 7 110 11 41
3 89 7 105 9 133 11 225 19 253 19 17 1 32 3 32 6 0 3 24 6 53 6 57 2 182 10
267 18 60 7 159 14 290 22 47 2 108 6 135 8 28 3 102 7 165 11 63 3 144 8 180
11 62 4 136 8 370 19 181 9 389 16 556 19 89 2 166 6 172 10 6 3 13 2 17 -4 4
-7 12 -7 25 0 12 6 21 7 25 0 3 -5 15 -6 28 -1 14 5 30 5 40 0 9 -6 17 -6 17
-2 0 10 501 10 518 0 6 -5 12 -4 12 0 0 10 53 9 69 -2 6 -3 11 -2 11 4 0 6 11
6 30 1 19 -5 30 -5 30 1 0 6 5 7 11 3 7 -4 78 -8 158 -10 80 -2 191 -5 246 -8
55 -3 156 -8 225 -11 69 -3 136 -8 150 -10 14 -3 70 -7 124 -11 55 -3 108 -8
120 -10 11 -2 56 -7 99 -10 74 -6 112 -10 112 -14 0 -1 25 -3 55 -5 30 -2 69
-6 85 -9 17 -3 50 -8 75 -11 46 -6 85 -12 85 -15 0 0 20 -3 45 -5 25 -3 56 -7
70 -10 14 -3 41 -8 60 -11 19 -3 46 -7 60 -10 14 -3 39 -7 55 -10 17 -3 32 -7
35 -7 3 -1 7 3 9 8 4 11 -45 30 -174 71 -44 14 -86 27 -93 29 -7 3 -14 5 -17
5 -3 1 -20 7 -40 16 -19 8 -37 14 -40 13 -5 0 -93 25 -175 51 -91 28 -456 126
-503 134 -7 1 -21 5 -32 9 -11 3 -31 9 -45 11 -14 3 -43 10 -65 15 -22 5 -82
19 -133 30 -51 11 -97 23 -102 26 -5 3 -21 7 -37 9 -35 6 -100 19 -228 46 -55
12 -109 23 -120 25 -11 2 -56 11 -100 20 -44 9 -93 18 -110 21 -16 3 -50 9
-75 14 -25 5 -58 12 -75 14 -16 3 -42 7 -58 10 -15 3 -53 10 -85 16 -97 16
-116 20 -142 25 -13 2 -42 7 -65 10 -66 10 -106 16 -129 21 -11 2 -41 7 -66
10 -25 3 -54 8 -65 10 -11 2 -38 6 -60 9 -22 3 -51 7 -64 10 -14 2 -47 7 -75
10 -28 3 -58 7 -66 10 -16 4 -97 16 -145 20 -16 2 -46 6 -65 9 -19 2 -57 8
-85 11 -27 3 -63 9 -80 11 -16 3 -48 7 -70 9 -38 3 -77 7 -185 21 -54 7 -97
12 -170 19 -30 2 -71 7 -90 10 -19 2 -64 7 -100 10 -36 3 -83 8 -105 10 -22 2
-65 6 -95 9 -30 3 -82 8 -115 11 -33 3 -87 8 -120 10 -33 2 -85 6 -115 9 -79
7 -206 17 -270 21 -30 2 -100 6 -155 10 -210 13 -253 15 -360 20 -60 2 -110 5
-110 6 0 1 -92 5 -325 13 -196 8 -1098 24 -1103 20z"/>
</g>
</svg>
